<?xml version="1.0" standalone="no"?>
<!DOCTYPE svg PUBLIC "-//W3C//DTD SVG 20010904//EN"
 "http://www.w3.org/TR/2001/REC-SVG-20010904/DTD/svg10.dtd">
<svg version="1.0" xmlns="http://www.w3.org/2000/svg"
 width="700.000000pt" height="700.000000pt" viewBox="0 0 700.000000 700.000000"
 preserveAspectRatio="xMidYMid meet">
<metadata>
Created by potrace 1.11, written by Peter Selinger 2001-2013
</metadata>
<g transform="translate(0.000000,700.000000) scale(0.100000,-0.100000)"
fill="#000000" stroke="none">
<path d="M3390 6893 c-1040 -27 -1956 -373 -2550 -963 -173 -171 -321 -366
-428 -562 l-42 -76 756 -420 757 -421 48 97 c262 532 770 842 1381 842 554 0
872 -206 973 -630 22 -92 42 -423 27 -454 -15 -34 -133 -88 -285 -132 -158
-46 -481 -119 -1052 -239 -631 -132 -923 -208 -1215 -317 -909 -337 -1356
-820 -1431 -1546 -14 -135 -7 -370 15 -507 58 -364 198 -654 433 -898 299
-310 700 -486 1237 -543 182 -19 504 -14 666 11 703 108 1229 473 1516 1050
35 71 80 173 98 225 l34 95 6 -90 c46 -610 138 -969 290 -1132 l30 -33 1023 0
c971 0 1070 3 1008 26 -25 10 -104 136 -140 225 -67 166 -127 448 -160 760
-42 393 -47 556 -51 1989 -4 1147 -7 1412 -20 1545 -121 1259 -897 1958 -2309
2079 -175 15 -448 24 -615 19z m920 -4408 c-60 -430 -279 -740 -646 -915 -171
-81 -357 -121 -564 -122 -162 0 -252 20 -379 84 -155 78 -281 234 -326 404
-37 140 -36 341 1 472 20 68 71 174 114 234 58 81 175 190 279 260 183 122
312 180 720 322 284 100 400 145 514 203 87 43 198 114 252 160 l40 34 3 -528
c2 -348 -1 -555 -8 -608z"/>
</g>
</svg>
