<?xml version="1.0" standalone="no"?>
<!DOCTYPE svg PUBLIC "-//W3C//DTD SVG 20010904//EN"
 "http://www.w3.org/TR/2001/REC-SVG-20010904/DTD/svg10.dtd">
<svg version="1.0" xmlns="http://www.w3.org/2000/svg"
 width="700.000000pt" height="700.000000pt" viewBox="0 0 700.000000 700.000000"
 preserveAspectRatio="xMidYMid meet">
<metadata>
Created by potrace 1.11, written by Peter Selinger 2001-2013
</metadata>
<g transform="translate(0.000000,700.000000) scale(0.100000,-0.100000)"
fill="#000000" stroke="none">
<path d="M3225 6994 c-241 -24 -499 -70 -670 -120 -826 -238 -1508 -737 -1980
-1448 -244 -368 -417 -784 -505 -1216 -56 -278 -64 -367 -64 -710 0 -343 8
-432 64 -710 224 -1101 978 -2034 2015 -2494 301 -134 618 -223 975 -273 179
-25 701 -25 880 0 734 103 1343 382 1890 863 556 489 952 1174 1100 1904 56
278 64 367 64 710 0 343 -8 432 -64 710 -242 1192 -1117 2193 -2265 2593 -244
85 -460 137 -720 173 -114 15 -617 28 -720 18z"/>
</g>
</svg>
